<?xml version="1.0" encoding="UTF-8"?>
<!DOCTYPE svg PUBLIC "-//W3C//DTD SVG 1.1//EN" "http://www.w3.org/Graphics/SVG/1.1/DTD/svg11.dtd">
<!-- Creator: CorelDRAW 2020 (64 Bit) -->
<svg xmlns="http://www.w3.org/2000/svg" xml:space="preserve" width="794px" height="1123px" version="1.1" style="shape-rendering:geometricPrecision; text-rendering:geometricPrecision; image-rendering:optimizeQuality; fill-rule:evenodd; clip-rule:evenodd"
viewBox="0 0 794 1122.943"
 xmlns:xlink="http://www.w3.org/1999/xlink"
 xmlns:xodm="http://www.corel.com/coreldraw/odm/2003">
 <defs>
  <style type="text/css">
   <![CDATA[
    .fil5 {fill:black}
    .fil4 {fill:url(#id0)}
    .fil1 {fill:url(#id1)}
    .fil3 {fill:url(#id2)}
    .fil0 {fill:url(#id3)}
    .fil2 {fill:url(#id4)}
   ]]>
  </style>
  <linearGradient id="id0" gradientUnits="userSpaceOnUse" x1="433.798" y1="555.347" x2="455.297" y2="555.347">
   <stop offset="0" style="stop-opacity:1; stop-color:#16603D"/>
   <stop offset="0.670588" style="stop-opacity:1; stop-color:#38983E"/>
   <stop offset="1" style="stop-opacity:1; stop-color:#46A845"/>
  </linearGradient>
  <linearGradient id="id1" gradientUnits="userSpaceOnUse" x1="457.935" y1="567.361" x2="460.76" y2="567.361">
   <stop offset="0" style="stop-opacity:1; stop-color:#DD8C92"/>
   <stop offset="1" style="stop-opacity:1; stop-color:#F2BAB9"/>
  </linearGradient>
  <linearGradient id="id2" gradientUnits="userSpaceOnUse" xlink:href="#id1" x1="442.758" y1="573.103" x2="445.901" y2="573.103">
  </linearGradient>
  <radialGradient id="id3" gradientUnits="userSpaceOnUse" gradientTransform="matrix(0.999994 -0 -0 0.961234 0 22)" cx="451.639" cy="568.778" r="76.456" fx="451.639" fy="568.778">
   <stop offset="0" style="stop-opacity:1; stop-color:#ED2225"/>
   <stop offset="0.121569" style="stop-opacity:1; stop-color:#ED2225"/>
   <stop offset="0.301961" style="stop-opacity:1; stop-color:#ED2225"/>
   <stop offset="0.509804" style="stop-opacity:1; stop-color:#ED2225"/>
   <stop offset="0.701961" style="stop-opacity:1; stop-color:#ED2225"/>
   <stop offset="0.870588" style="stop-opacity:1; stop-color:#A51D1F"/>
   <stop offset="1" style="stop-opacity:1; stop-color:#590D0D"/>
  </radialGradient>
  <radialGradient id="id4" gradientUnits="userSpaceOnUse" gradientTransform="matrix(1.06083 0.0713738 -0.0795296 0.952042 19 -4)" cx="436.649" cy="575.083" r="75.569" fx="436.649" fy="575.083">
   <stop offset="0" style="stop-opacity:1; stop-color:#ED2225"/>
   <stop offset="0.0901961" style="stop-opacity:1; stop-color:#ED2225"/>
   <stop offset="0.301961" style="stop-opacity:1; stop-color:#ED2225"/>
   <stop offset="0.509804" style="stop-opacity:1; stop-color:#ED2225"/>
   <stop offset="0.690196" style="stop-opacity:1; stop-color:#ED2225"/>
   <stop offset="0.85098" style="stop-opacity:1; stop-color:#A51D1F"/>
   <stop offset="1" style="stop-opacity:1; stop-color:#590D0D"/>
  </radialGradient>
 </defs>
 <g id="Camada_x0020_1">
  <metadata id="CorelCorpID_0Corel-Layer"/>
  <g id="_2290747727232">
   <path class="fil0" d="M441.242 568.202c0.571,6.541 4.297,10.134 9.901,10.618 6.058,0.126 11.52,-3.818 10.895,-11.946 -0.256,-3.68 -3.798,-6.975 -7.994,-7.76 -1.874,-0.35 -4.065,-0.496 -6.135,-0.274 -4.052,0.434 -7.167,3.628 -6.667,9.362z"/>
   <path class="fil1" d="M457.952 562.822c-0.073,-0.139 0.104,-0.234 0.256,-0.154 3.801,2.287 2.653,6.076 1.054,9.414 0.523,-3.087 0.463,-6.173 -1.31,-9.26z"/>
   <path class="fil2" d="M434.179 566.698c-5.443,-2.381 -8.936,2.898 -8.477,8.157 0.571,6.542 4.252,9.862 9.582,10.072 7.835,0.308 12.963,-3.551 12.293,-13.183 -0.324,-4.656 -5.95,-8.005 -9.069,-5.856 -1.271,1.084 -2.724,1.306 -4.329,0.81z"/>
   <path class="fil3" d="M442.776 568.055c-0.08,-0.155 0.117,-0.26 0.285,-0.171 4.229,2.543 2.951,6.758 1.174,10.47 0.581,-3.433 0.514,-6.866 -1.459,-10.299z"/>
   <path class="fil4" d="M437.402 567.694c-0.051,-3.127 0.194,-6.363 0.76,-9.715 0.889,-4.753 0.265,-8.372 -1.276,-11.302 -0.069,-0.117 0.059,-0.389 0.182,-0.376 0.767,0.334 1.534,0.668 2.301,1.002 1.263,1.613 2.816,2.953 5.173,3.532 2.641,2.457 4.873,5.686 6.517,10.021 -0.213,0.136 -0.335,0.279 -0.298,0.375 0.057,0.149 0.473,0.129 0.931,-0.046 0.457,-0.174 0.782,-0.437 0.725,-0.586 -0.037,-0.096 -0.222,-0.121 -0.472,-0.081 -1.264,-3.284 -2.921,-6.373 -5.364,-9.068 0.034,-0.129 0.069,-0.258 0.103,-0.387 1.732,0.724 5.3,-0.882 8.613,-0.979 -3.303,-4.033 -5.886,-11.009 -17.021,-6.403 -1.55,-0.008 -2.644,0.326 -3.464,0.865 -0.296,-0.011 -0.593,-0.022 -0.889,-0.034 -0.042,0.296 -0.083,0.593 -0.125,0.889 1.025,0.223 1.914,0.878 2.575,2.256 2.521,5.459 -0.055,12.836 0.068,19.957 -0.704,0.025 -1.253,0.22 -1.253,0.456 0,0.253 0.63,0.459 1.407,0.459 0.778,0 1.408,-0.206 1.408,-0.459 0,-0.155 -0.238,-0.293 -0.601,-0.376zm-2.382 -22.939c1.012,0.153 2.158,0.496 3.11,1.014 0.105,0.037 0.268,-0.127 0.239,-0.24 -0.191,-0.433 -0.302,-0.827 -0.25,-1.139 3.208,0.279 8.49,2.505 11.53,3.68 -3.516,-1.95 -7.157,-3.413 -11.006,-4.056 -1.144,-0.263 -2.627,-0.186 -3.623,0.741z"/>
   <path class="fil5" d="M331.612 539.457l2.985 0 0.013 0 0.014 0 0.013 0 0.014 0 0.014 0 0.013 0 0.013 0 0.014 0 0.014 0 0.013 0 0.014 0 0.013 0 0.014 0 0.013 0 0.014 0 0.014 0 0.013 0 0.013 0 0.014 0 0.014 0 0.013 0 0.013 0 0.014 0 0.014 0 0.013 0 0.014 0 0.013 0 0.014 0 0.013 0 0.014 0 0.014 0 0.013 0 0.013 0 0.014 0 0.014 0 0.013 0 0.013 0 0.014 0 0.014 0 0.013 0 0.014 0 0.013 0 0.014 0 0.013 0 0.014 0 0.014 0 0.013 0 0.013 0 0.014 0 0.014 0 0.013 0 0.014 0 0.013 0 0.014 0 0.013 0 0.014 0 0.013 0 0.014 0 0.013 0 0.014 0 0.014 0 0.013 0 0.013 0 0.014 0c3.127,0.151 7.272,-0.251 6.699,4.332l0 14.567 0 0.555 -0.062 0c-0.291,1.792 -1.367,2.502 -2.746,2.794 2.047,0.641 3.07,1.969 2.808,4.159l0 19.211 -3.696 0 0 -19.12 0 -0.573 0.001 0c-0.075,-1.289 -0.721,-2.134 -2.076,-2.429l-0.928 0 0 22.122 -3.851 0 0 -45.618zm3.851 2.564l0 18.311 0.473 0 0.928 0 0 0.064c1.019,-0.062 1.57,-0.648 1.602,-1.818l0 -0.222 0 -14.635c-0.033,-1.41 -1.297,-1.747 -3.003,-1.7z"/>
   <polygon class="fil5" points="409.234,542.043 409.234,585.075 405.588,585.075 405.588,542.043 401.675,542.043 401.675,539.422 413.023,539.422 413.023,542.043 "/>
   <polygon class="fil5" points="395.813,539.457 399.095,539.457 399.095,585.075 395.813,585.075 395.813,582.329 390.926,558.201 390.926,585.075 387.712,585.075 387.712,539.457 390.926,539.457 390.926,541.89 395.813,567.206 "/>
   <polygon class="fil5" points="419.59,582.45 423.516,582.45 423.516,585.07 419.59,585.07 419.59,585.075 415.893,585.075 415.893,539.457 419.59,539.457 419.59,539.458 423.516,539.458 423.516,542.078 419.59,542.078 419.59,559.564 423.516,559.564 423.516,562.184 419.59,562.184 "/>
   <path class="fil5" d="M377.578 572.364l2.583 0 -1.25 -23.518 -1.333 23.518zm2.722 2.62l-2.87 0 -0.57 10.053 -3.606 0.003 3.778 -45.586 3.737 0 3.763 45.576 -3.699 -0.002 -0.533 -10.044z"/>
   <path class="fil5" d="M349.094 539.454l3.737 0 3.763 45.576 -3.698 -0.002 -0.534 -10.044 -2.87 0 -0.569 10.053 -3.606 0.003 3.777 -45.586zm3.129 32.91l-1.249 -23.518 -1.333 23.518 2.582 0z"/>
   <path class="fil5" d="M359.786 569.041c1.208,0.003 2.415,0.007 3.623,0.011 0.015,4.101 0.031,8.203 0.046,12.305 0.202,2.067 2.81,2.022 3.019,0.068 -0.082,-3.59 -0.426,-7.105 -0.934,-10.573 -0.624,-3.19 -1.829,-6.464 -3.304,-9.775 -1.948,-6.192 -2.672,-12.116 -2.506,-18.571 1.436,-4.799 9.447,-5.135 10.322,0.046 0.277,4.154 0.031,8.575 0.046,12.862 -1.208,-0.011 -2.416,-0.022 -3.624,-0.034 -0.034,-4.246 -0.068,-8.492 -0.102,-12.737 -0.66,-1.543 -2.516,-1.306 -2.883,0.239 -0.136,3.364 0.03,6.706 0.65,9.98 0.985,5.202 2.507,8.051 3.76,12.077 1.234,3.793 2.216,8.068 2.233,14.173 0.04,2.183 -0.221,4.107 -1.458,5.196 -2.906,2.559 -8.623,1.369 -9.024,-3.077 0.046,-4.063 0.091,-8.127 0.136,-12.19z"/>
  </g>
 </g>
</svg>
