<?xml version="1.0" encoding="UTF-8"?>
<!DOCTYPE svg PUBLIC "-//W3C//DTD SVG 1.1//EN" "http://www.w3.org/Graphics/SVG/1.1/DTD/svg11.dtd">
<!-- Creator: CorelDRAW 2020 (64 Bit) -->
<svg xmlns="http://www.w3.org/2000/svg" xml:space="preserve" width="800px" height="800px" version="1.1" style="shape-rendering:geometricPrecision; text-rendering:geometricPrecision; image-rendering:optimizeQuality; fill-rule:evenodd; clip-rule:evenodd"
viewBox="0 0 800 800"
 xmlns:xlink="http://www.w3.org/1999/xlink"
 xmlns:xodm="http://www.corel.com/coreldraw/odm/2003">
 <defs>
  <style type="text/css">
   <![CDATA[
    .fil4 {fill:url(#id0)}
    .fil1 {fill:url(#id1)}
    .fil3 {fill:url(#id2)}
    .fil0 {fill:url(#id3)}
    .fil2 {fill:url(#id4)}
   ]]>
  </style>
  <linearGradient id="id0" gradientUnits="userSpaceOnUse" x1="218.13" y1="264.16" x2="603.32" y2="264.16">
   <stop offset="0" style="stop-opacity:1; stop-color:#16603D"/>
   <stop offset="0.670588" style="stop-opacity:1; stop-color:#38983E"/>
   <stop offset="1" style="stop-opacity:1; stop-color:#46A845"/>
  </linearGradient>
  <linearGradient id="id1" gradientUnits="userSpaceOnUse" x1="650.59" y1="479.41" x2="701.21" y2="479.41">
   <stop offset="0" style="stop-opacity:1; stop-color:#DD8C92"/>
   <stop offset="1" style="stop-opacity:1; stop-color:#F2BAB9"/>
  </linearGradient>
  <linearGradient id="id2" gradientUnits="userSpaceOnUse" xlink:href="#id1" x1="378.66" y1="582.29" x2="434.97" y2="582.29">
  </linearGradient>
  <radialGradient id="id3" gradientUnits="userSpaceOnUse" gradientTransform="matrix(1 -0 -0 0.961244 0 20)" cx="537.78" cy="504.82" r="238.84" fx="537.78" fy="504.82">
   <stop offset="0" style="stop-opacity:1; stop-color:#ED2225"/>
   <stop offset="0.121569" style="stop-opacity:1; stop-color:#ED2225"/>
   <stop offset="0.301961" style="stop-opacity:1; stop-color:#ED2225"/>
   <stop offset="0.509804" style="stop-opacity:1; stop-color:#ED2225"/>
   <stop offset="0.701961" style="stop-opacity:1; stop-color:#ED2225"/>
   <stop offset="0.870588" style="stop-opacity:1; stop-color:#A51D1F"/>
   <stop offset="1" style="stop-opacity:1; stop-color:#590D0D"/>
  </radialGradient>
  <radialGradient id="id4" gradientUnits="userSpaceOnUse" gradientTransform="matrix(1.06085 0.0713766 -0.0795311 0.952079 33 10)" cx="269.2" cy="617.77" r="236.06" fx="269.2" fy="617.77">
   <stop offset="0" style="stop-opacity:1; stop-color:#ED2225"/>
   <stop offset="0.0901961" style="stop-opacity:1; stop-color:#ED2225"/>
   <stop offset="0.301961" style="stop-opacity:1; stop-color:#ED2225"/>
   <stop offset="0.509804" style="stop-opacity:1; stop-color:#ED2225"/>
   <stop offset="0.690196" style="stop-opacity:1; stop-color:#ED2225"/>
   <stop offset="0.85098" style="stop-opacity:1; stop-color:#A51D1F"/>
   <stop offset="1" style="stop-opacity:1; stop-color:#590D0D"/>
  </radialGradient>
 </defs>
 <g id="Camada_x0020_1">
  <metadata id="CorelCorpID_0Corel-Layer"/>
  <g id="_1347730250720">
   <path class="fil0" d="M351.51 494.48c10.23,117.2 76.99,181.58 177.39,190.24 108.54,2.26 206.41,-68.4 195.21,-214.02 -4.59,-65.94 -68.05,-124.98 -143.23,-139.04 -33.58,-6.28 -72.84,-8.88 -109.93,-4.91 -72.6,7.78 -128.4,65.01 -119.44,167.73z"/>
   <path class="fil1" d="M650.88 398.1c-1.29,-2.49 1.88,-4.19 4.59,-2.75 68.11,40.96 47.54,108.85 18.91,168.65 9.36,-55.3 8.28,-110.6 -23.5,-165.9z"/>
   <path class="fil2" d="M224.96 467.53c-97.53,-42.65 -160.1,51.93 -151.88,146.16 10.23,117.2 76.17,176.69 171.67,180.44 140.39,5.53 232.27,-63.61 220.25,-236.17 -5.81,-83.44 -106.6,-143.43 -162.49,-104.93 -22.77,19.41 -48.8,23.4 -77.55,14.5z"/>
   <path class="fil3" d="M379 491.85c-1.45,-2.77 2.09,-4.66 5.1,-3.06 75.76,45.57 52.88,121.07 21.02,187.59 10.42,-61.51 9.22,-123.02 -26.12,-184.53z"/>
   <path class="fil4" d="M282.71 485.39c-0.93,-56.04 3.48,-114.01 13.61,-174.07 15.93,-85.16 4.75,-150 -22.87,-202.5 -1.23,-2.08 1.07,-6.96 3.27,-6.73 13.74,5.98 27.49,11.97 41.23,17.96 22.63,28.9 50.44,52.9 92.68,63.28 47.32,44.03 87.32,101.87 116.77,179.54 -3.82,2.44 -6,5 -5.35,6.72 1.02,2.67 8.49,2.3 16.68,-0.83 8.19,-3.12 14.01,-7.82 12.99,-10.49 -0.66,-1.72 -3.98,-2.18 -8.45,-1.46 -22.65,-58.84 -52.33,-114.17 -96.11,-162.46 0.62,-2.31 1.23,-4.62 1.84,-6.94 31.05,12.96 94.96,-15.81 154.32,-17.55 -59.18,-72.25 -105.45,-197.23 -304.97,-114.72 -27.76,-0.13 -47.36,5.85 -62.05,15.52 -5.31,-0.21 -10.62,-0.41 -15.93,-0.62 -0.74,5.31 -1.49,10.62 -2.24,15.93 18.36,4 34.29,15.72 46.13,40.41 45.18,97.82 -0.99,229.99 1.22,357.58 -12.62,0.45 -22.44,3.93 -22.44,8.16 0,4.54 11.29,8.22 25.21,8.22 13.93,0 25.21,-3.68 25.21,-8.22 0,-2.78 -4.25,-5.24 -10.75,-6.73zm-42.69 -411c18.14,2.74 38.68,8.88 55.73,18.16 1.88,0.67 4.8,-2.27 4.29,-4.28 -3.43,-7.77 -5.43,-14.83 -4.49,-20.42 57.47,5.01 152.13,44.89 206.57,65.94 -62.99,-34.93 -128.21,-61.15 -197.19,-72.67 -20.49,-4.72 -47.05,-3.33 -64.91,13.27z"/>
  </g>
 </g>
</svg>
